<svg xmlns="http://www.w3.org/2000/svg" xmlns:xlink="http://www.w3.org/1999/xlink" viewBox="0 0 710 120"><defs><style>.cls-1{fill:url(#未命名的渐变_7);}.cls-2,.cls-6{fill:#935b00;}.cls-3{opacity:0.7;}.cls-4{fill:url(#未命名的渐变_28);}.cls-5{fill:url(#未命名的渐变_28-2);}.cls-6,.cls-7{font-size:30px;}.cls-6{font-family:PingFang-SC-Heavy, PingFang SC;font-weight:800;}.cls-7{fill:#fff;font-family:PingFang-SC-Medium, PingFang SC;font-weight:500;}</style><linearGradient id="未命名的渐变_7" x1="355" y1="-116.09" x2="355" y2="593.91" gradientUnits="userSpaceOnUse"><stop offset="0.17" stop-color="#ffc477"/><stop offset="0.34" stop-color="#ff9b19"/></linearGradient><linearGradient id="未命名的渐变_28" x1="592.67" y1="108.73" x2="682.33" y2="108.73" gradientUnits="userSpaceOnUse"><stop offset="0.03" stop-color="#fff" stop-opacity="0"/><stop offset="1" stop-color="#fff"/></linearGradient><linearGradient id="未命名的渐变_28-2" x1="577.08" y1="51.78" x2="697.92" y2="51.78" xlink:href="#未命名的渐变_28"/></defs><title>资源 7</title><g id="图层_2" data-name="图层 2"><g id="图层_1-2" data-name="图层 1"><path class="cls-1" d="M20,0H690a20,20,0,0,1,20,20V120a0,0,0,0,1,0,0H0a0,0,0,0,1,0,0V20A20,20,0,0,1,20,0Z"/><rect class="cls-2" x="26" y="45.44" width="23" height="2.22" rx="1.11"/><polygon class="cls-2" points="47.5 43.44 26.5 43.44 23.5 28.44 31.5 34.44 37 22.44 43.5 34.44 51 28.44 47.5 43.44"/><circle class="cls-2" cx="24" cy="28.44" r="2"/><circle class="cls-2" cx="51" cy="28.44" r="2"/><circle class="cls-2" cx="37" cy="22.44" r="2"/><g class="cls-3"><rect class="cls-4" x="592.67" y="104.4" width="89.66" height="8.64" rx="1.11"/><path class="cls-5" d="M690.12,30.34A7.79,7.79,0,0,0,684,43L660.89,61.53,639.26,21.6a7.8,7.8,0,1,0-7,.23l-18.2,39.7L590.34,43.7a7.81,7.81,0,1,0-5.86,2.21l10.14,50.7h81.86l11.87-50.89a7.39,7.39,0,0,0,1.77.21,7.8,7.8,0,1,0,0-15.59Z"/></g><text class="cls-6" transform="translate(62.35 46.51)">黄金会员</text><text class="cls-7" transform="translate(22 95.51)">开通会员VIP,快来开通吧</text></g></g></svg>